<svg width="20" height="37" viewBox="0 0 20 37" fill="none" xmlns="http://www.w3.org/2000/svg">
<path d="M0.379517 22.4351L8.95375 12.4409C9.07323 12.3012 9.21521 12.1903 9.37155 12.1146C9.52788 12.0389 9.69549 12 9.86476 12C10.034 12 10.2016 12.0389 10.358 12.1146C10.5143 12.1903 10.6563 12.3012 10.7758 12.4409L19.35 22.4351C19.5916 22.7168 19.7274 23.0987 19.7274 23.497C19.7274 23.8953 19.5916 24.2773 19.35 24.5589C19.1084 24.8405 18.7807 24.9988 18.439 24.9988C18.0973 24.9988 17.7696 24.8405 17.528 24.5589L9.86369 15.6253L2.1994 24.5602C1.95778 24.8418 1.63008 25 1.28839 25C0.946692 25 0.61899 24.8418 0.377375 24.5602C0.135759 24.2785 1.71661e-05 23.8966 1.71661e-05 23.4983C1.71661e-05 23.1 0.135759 22.718 0.377375 22.4364L0.379517 22.4351Z" fill="#39454B"/>
</svg>
