<svg width="143" height="44" viewBox="0 0 143 44" fill="none" xmlns="http://www.w3.org/2000/svg">
<path d="M17.943 18.744C18.083 18.618 18.258 18.485 18.468 18.345C18.678 18.191 18.888 18.044 19.098 17.904C19.322 17.75 19.546 17.617 19.77 17.505C19.994 17.379 20.19 17.288 20.358 17.232L20.862 17.064L21.702 19.668L21.198 19.836C21.016 19.892 20.806 19.934 20.568 19.962C20.33 19.99 20.078 20.011 19.812 20.025C19.546 20.025 19.287 20.025 19.035 20.025C18.783 20.025 18.559 20.025 18.363 20.025C18.531 20.137 18.713 20.27 18.909 20.424C19.119 20.564 19.322 20.718 19.518 20.886C19.728 21.04 19.924 21.201 20.106 21.369C20.288 21.537 20.435 21.698 20.547 21.852L20.883 22.293L18.657 23.868L18.342 23.448C18.23 23.308 18.118 23.126 18.006 22.902C17.908 22.678 17.81 22.447 17.712 22.209C17.614 21.957 17.53 21.712 17.46 21.474C17.39 21.236 17.327 21.019 17.271 20.823C17.215 21.019 17.152 21.236 17.082 21.474C17.012 21.712 16.928 21.957 16.83 22.209C16.732 22.447 16.627 22.678 16.515 22.902C16.417 23.126 16.312 23.308 16.2 23.448L15.885 23.868L13.659 22.293L13.995 21.852C14.107 21.698 14.254 21.537 14.436 21.369C14.618 21.201 14.807 21.04 15.003 20.886C15.213 20.718 15.416 20.564 15.612 20.424C15.822 20.27 16.011 20.137 16.179 20.025C15.983 20.025 15.759 20.025 15.507 20.025C15.255 20.025 14.996 20.025 14.73 20.025C14.464 20.011 14.212 19.99 13.974 19.962C13.736 19.934 13.526 19.892 13.344 19.836L12.84 19.668L13.68 17.064L14.184 17.232C14.352 17.288 14.548 17.379 14.772 17.505C14.996 17.617 15.213 17.75 15.423 17.904C15.647 18.044 15.857 18.191 16.053 18.345C16.263 18.485 16.445 18.618 16.599 18.744C16.529 18.562 16.452 18.352 16.368 18.114C16.298 17.862 16.228 17.61 16.158 17.358C16.088 17.106 16.025 16.861 15.969 16.623C15.927 16.371 15.906 16.154 15.906 15.972V15.447H18.636V15.972C18.636 16.154 18.608 16.371 18.552 16.623C18.51 16.861 18.454 17.106 18.384 17.358C18.314 17.61 18.237 17.862 18.153 18.114C18.083 18.352 18.013 18.562 17.943 18.744ZM36.3639 17.967C34.8379 17.967 33.7319 18.394 33.0459 19.248C32.3739 20.088 32.0379 21.243 32.0379 22.713C32.0379 23.427 32.1219 24.078 32.2899 24.666C32.4579 25.24 32.7099 25.737 33.0459 26.157C33.3819 26.577 33.8019 26.906 34.3059 27.144C34.8099 27.368 35.3979 27.48 36.0699 27.48C36.4339 27.48 36.7419 27.473 36.9939 27.459C37.2599 27.445 37.4909 27.417 37.6869 27.375V22.314H40.9629V29.517C40.5709 29.671 39.9409 29.832 39.0729 30C38.2049 30.182 37.1339 30.273 35.8599 30.273C34.7679 30.273 33.7739 30.105 32.8779 29.769C31.9959 29.433 31.2399 28.943 30.6099 28.299C29.9799 27.655 29.4899 26.864 29.1399 25.926C28.8039 24.988 28.6359 23.917 28.6359 22.713C28.6359 21.495 28.8249 20.417 29.2029 19.479C29.5809 18.541 30.0989 17.75 30.7569 17.106C31.4149 16.448 32.1849 15.951 33.0669 15.615C33.9629 15.279 34.9149 15.111 35.9229 15.111C36.6089 15.111 37.2249 15.16 37.7709 15.258C38.3309 15.342 38.8069 15.447 39.1989 15.573C39.6049 15.685 39.9339 15.804 40.1859 15.93C40.4519 16.056 40.6409 16.154 40.7529 16.224L39.8079 18.849C39.3599 18.611 38.8419 18.408 38.2539 18.24C37.6799 18.058 37.0499 17.967 36.3639 17.967ZM44.0111 15.447H47.2871V30H44.0111V15.447ZM61.4496 15.447V18.24H57.0606V30H53.7846V18.24H49.3956V15.447H61.4496ZM72.5689 27.501C73.0309 27.501 73.4089 27.466 73.7029 27.396C74.0109 27.312 74.2559 27.207 74.4379 27.081C74.6199 26.941 74.7459 26.78 74.8159 26.598C74.8859 26.416 74.9209 26.213 74.9209 25.989C74.9209 25.513 74.6969 25.121 74.2489 24.813C73.8009 24.491 73.0309 24.148 71.9389 23.784C71.4629 23.616 70.9869 23.427 70.5109 23.217C70.0349 22.993 69.6079 22.72 69.2299 22.398C68.8519 22.062 68.5439 21.663 68.3059 21.201C68.0679 20.725 67.9489 20.151 67.9489 19.479C67.9489 18.807 68.0749 18.205 68.3269 17.673C68.5789 17.127 68.9359 16.665 69.3979 16.287C69.8599 15.909 70.4199 15.622 71.0779 15.426C71.7359 15.216 72.4779 15.111 73.3039 15.111C74.2839 15.111 75.1309 15.216 75.8449 15.426C76.5589 15.636 77.1469 15.867 77.6089 16.119L76.6639 18.702C76.2579 18.492 75.8029 18.31 75.2989 18.156C74.8089 17.988 74.2139 17.904 73.5139 17.904C72.7299 17.904 72.1629 18.016 71.8129 18.24C71.4769 18.45 71.3089 18.779 71.3089 19.227C71.3089 19.493 71.3719 19.717 71.4979 19.899C71.6239 20.081 71.7989 20.249 72.0229 20.403C72.2609 20.543 72.5269 20.676 72.8209 20.802C73.1289 20.914 73.4649 21.033 73.8289 21.159C74.5849 21.439 75.2429 21.719 75.8029 21.999C76.3629 22.265 76.8249 22.58 77.1889 22.944C77.5669 23.308 77.8469 23.735 78.0289 24.225C78.2109 24.715 78.3019 25.31 78.3019 26.01C78.3019 27.368 77.8259 28.425 76.8739 29.181C75.9219 29.923 74.4869 30.294 72.5689 30.294C71.9249 30.294 71.3439 30.252 70.8259 30.168C70.3079 30.098 69.8459 30.007 69.4399 29.895C69.0479 29.783 68.7049 29.664 68.4109 29.538C68.1309 29.412 67.8929 29.293 67.6969 29.181L68.6209 26.577C69.0549 26.815 69.5869 27.032 70.2169 27.228C70.8609 27.41 71.6449 27.501 72.5689 27.501ZM90.5456 27.186V30H80.8226V15.447H84.0986V27.186H90.5456ZM103.056 30C102.902 29.496 102.727 28.978 102.531 28.446C102.349 27.914 102.167 27.382 101.985 26.85H96.3148C96.1328 27.382 95.9438 27.914 95.7478 28.446C95.5658 28.978 95.3978 29.496 95.2438 30H91.8418C92.3878 28.432 92.9058 26.983 93.3958 25.653C93.8858 24.323 94.3618 23.07 94.8238 21.894C95.2998 20.718 95.7618 19.605 96.2098 18.555C96.6718 17.491 97.1478 16.455 97.6378 15.447H100.767C101.243 16.455 101.712 17.491 102.174 18.555C102.636 19.605 103.098 20.718 103.56 21.894C104.036 23.07 104.519 24.323 105.009 25.653C105.499 26.983 106.017 28.432 106.563 30H103.056ZM99.1288 18.744C99.0588 18.954 98.9538 19.241 98.8138 19.605C98.6738 19.969 98.5128 20.389 98.3308 20.865C98.1488 21.341 97.9458 21.866 97.7218 22.44C97.5118 23.014 97.2948 23.616 97.0708 24.246H101.208C100.984 23.616 100.767 23.014 100.557 22.44C100.347 21.866 100.144 21.341 99.9478 20.865C99.7658 20.389 99.6048 19.969 99.4648 19.605C99.3248 19.241 99.2128 18.954 99.1288 18.744ZM117.518 15.447V18.24H113.129V30H109.853V18.24H105.464V15.447H117.518ZM119.623 30V15.447H129.451V18.198H122.899V21.054H128.716V23.742H122.899V27.249H129.934V30H119.623Z" fill="#566771"/>
<rect x="0.75" y="0.75" width="141.5" height="42.5" rx="5.25" stroke="#566771" stroke-width="1.5"/>
</svg>
