<svg width="13" height="21" viewBox="0 0 13 21" fill="none" xmlns="http://www.w3.org/2000/svg">
<g clip-path="url(#clip0_47_963)">
<path d="M1 10.5C1 10.6768 1.07024 10.8464 1.19526 10.9714C1.32029 11.0964 1.48986 11.1667 1.66667 11.1667C1.84348 11.1667 2.01305 11.0964 2.13807 10.9714C2.2631 10.8464 2.33333 10.6768 2.33333 10.5C2.33333 10.3232 2.2631 10.1536 2.13807 10.0286C2.01305 9.90358 1.84348 9.83334 1.66667 9.83334C1.48986 9.83334 1.32029 9.90358 1.19526 10.0286C1.07024 10.1536 1 10.3232 1 10.5ZM5.66667 10.5C5.66667 10.6768 5.7369 10.8464 5.86193 10.9714C5.98695 11.0964 6.15652 11.1667 6.33333 11.1667C6.51014 11.1667 6.67971 11.0964 6.80474 10.9714C6.92976 10.8464 7 10.6768 7 10.5C7 10.3232 6.92976 10.1536 6.80474 10.0286C6.67971 9.90358 6.51014 9.83334 6.33333 9.83334C6.15652 9.83334 5.98695 9.90358 5.86193 10.0286C5.7369 10.1536 5.66667 10.3232 5.66667 10.5ZM10.3333 10.5C10.3333 10.6768 10.4036 10.8464 10.5286 10.9714C10.6536 11.0964 10.8232 11.1667 11 11.1667C11.1768 11.1667 11.3464 11.0964 11.4714 10.9714C11.5964 10.8464 11.6667 10.6768 11.6667 10.5C11.6667 10.3232 11.5964 10.1536 11.4714 10.0286C11.3464 9.90358 11.1768 9.83334 11 9.83334C10.8232 9.83334 10.6536 9.90358 10.5286 10.0286C10.4036 10.1536 10.3333 10.3232 10.3333 10.5Z" stroke="#2C353A" stroke-width="1.33333" stroke-linecap="round" stroke-linejoin="round"/>
</g>
<defs>
<clipPath id="clip0_47_963">
<rect width="12.6667" height="21" fill="white"/>
</clipPath>
</defs>
</svg>
