<svg width="17" height="18" viewBox="0 0 17 18" fill="none" xmlns="http://www.w3.org/2000/svg">
<g clip-path="url(#clip0_1_3106)">
<path fill-rule="evenodd" clip-rule="evenodd" d="M11.8633 9.75342C12.7766 10.3734 13.4166 11.2134 13.4166 12.3334V14.3334H15.4166C15.7833 14.3334 16.0833 14.0334 16.0833 13.6668V12.3334C16.0833 10.8801 13.7033 10.0201 11.8633 9.75342Z" fill="#363A45"/>
<path d="M6.74992 9.00008C8.22268 9.00008 9.41659 7.80617 9.41659 6.33341C9.41659 4.86066 8.22268 3.66675 6.74992 3.66675C5.27716 3.66675 4.08325 4.86066 4.08325 6.33341C4.08325 7.80617 5.27716 9.00008 6.74992 9.00008Z" fill="#363A45"/>
<path fill-rule="evenodd" clip-rule="evenodd" d="M10.7501 9.00008C12.2234 9.00008 13.4167 7.80675 13.4167 6.33341C13.4167 4.86008 12.2234 3.66675 10.7501 3.66675C10.4367 3.66675 10.1434 3.73341 9.86341 3.82675C10.4371 4.53623 10.7501 5.42102 10.7501 6.33341C10.7501 7.24581 10.4371 8.1306 9.86341 8.84008C10.1434 8.93341 10.4367 9.00008 10.7501 9.00008ZM6.75008 9.66675C4.97008 9.66675 1.41675 10.5601 1.41675 12.3334V13.6667C1.41675 14.0334 1.71675 14.3334 2.08341 14.3334H11.4167C11.7834 14.3334 12.0834 14.0334 12.0834 13.6667V12.3334C12.0834 10.5601 8.53008 9.66675 6.75008 9.66675Z" fill="#363A45"/>
</g>
<defs>
<clipPath id="clip0_1_3106">
<rect width="16" height="16" fill="white" transform="translate(0.75 1)"/>
</clipPath>
</defs>
</svg>
