<svg width="17" height="18" viewBox="0 0 17 18" fill="none" xmlns="http://www.w3.org/2000/svg">
<path d="M15.4696 7.0135C16.3669 6.11628 15.9577 5.06832 15.4696 4.5587L13.3163 2.40537C12.4119 1.50815 11.3711 1.91728 10.8615 2.40537L9.64127 3.63277H7.78222C6.41844 3.63277 5.62889 4.35055 5.22693 5.17599L2.03999 8.36292V11.234L1.53037 11.7365C0.633146 12.6409 1.04228 13.6817 1.53037 14.1913L3.68371 16.3446C4.07131 16.7322 4.48762 16.8758 4.8824 16.8758C5.39202 16.8758 5.85857 16.6245 6.13851 16.3446L8.07651 14.3994H10.6533C11.8736 14.3994 12.4909 13.6386 12.7134 12.8921C13.5245 12.6768 13.9695 12.0595 14.1489 11.4565C15.2615 11.1694 15.6778 10.1143 15.6778 9.37499V7.22166H15.2543L15.4696 7.0135ZM14.2422 9.37499C14.2422 9.69799 14.1059 10.0928 13.5245 10.0928H12.8067V10.8105C12.8067 11.1335 12.6703 11.5283 12.0889 11.5283H11.3711V12.2461C11.3711 12.5691 11.2347 12.9639 10.6533 12.9639H7.48793L5.13362 15.3182C4.91111 15.5263 4.78191 15.4043 4.70295 15.3254L2.55679 13.1864C2.34864 12.9639 2.47066 12.8347 2.54961 12.7557L3.47555 11.8226V8.9515L4.91111 7.51594V8.65721C4.91111 9.52572 5.48533 10.8105 7.06444 10.8105C8.64356 10.8105 9.21778 9.52572 9.21778 8.65721H14.2422V9.37499ZM14.4504 5.99426L13.2302 7.22166H7.78222V8.65721C7.78222 8.98021 7.64584 9.37499 7.06444 9.37499C6.48304 9.37499 6.34666 8.98021 6.34666 8.65721V6.50388C6.34666 6.1737 6.46869 5.06832 7.78222 5.06832H10.2298L11.8664 3.43179C12.0889 3.22363 12.2181 3.34566 12.2971 3.42461L14.4432 5.56359C14.6514 5.7861 14.5293 5.9153 14.4504 5.99426Z" fill="#363A45"/>
</svg>
