<svg width="22" height="21" viewBox="0 0 22 21" fill="none" xmlns="http://www.w3.org/2000/svg">
<g clip-path="url(#clip0_1001_1768)">
<path d="M7.77953 0.690692C5.68131 1.41859 3.8718 2.80015 2.6168 4.63246C1.3618 6.46477 0.727458 8.65124 0.806948 10.8707C0.886438 13.0902 1.67557 15.2257 3.05843 16.9635C4.4413 18.7013 6.345 19.9499 8.48992 20.5258C10.2289 20.9746 12.0508 20.9943 13.799 20.5833C15.3827 20.2275 16.8469 19.4666 18.0482 18.375C19.2985 17.2042 20.206 15.7147 20.6732 14.0667C21.1808 12.2746 21.2712 10.39 20.9373 8.55749H11.1723V12.6082H16.8276C16.7146 13.2543 16.4724 13.8709 16.1155 14.4211C15.7586 14.9714 15.2943 15.444 14.7506 15.8107C14.0601 16.2677 13.2816 16.575 12.4652 16.713C11.6464 16.8653 10.8066 16.8653 9.98782 16.713C9.15791 16.5416 8.37285 16.1991 7.68274 15.7073C6.57392 14.9224 5.74135 13.8074 5.30383 12.5212C4.85904 11.211 4.85904 9.79061 5.30383 8.48038C5.61527 7.56198 6.13011 6.72579 6.80993 6.03421C7.5879 5.22825 8.57283 4.65214 9.65667 4.3691C10.7405 4.08606 11.8814 4.10702 12.9541 4.42968C13.7921 4.6868 14.5584 5.13626 15.1919 5.74218C15.8295 5.1078 16.4661 4.47179 17.1016 3.83413C17.4297 3.49124 17.7873 3.16475 18.1106 2.81366C17.1435 1.91381 16.0083 1.21357 14.7702 0.753036C12.5155 -0.0656524 10.0485 -0.0876539 7.77953 0.690692Z" fill="white"/>
<path d="M7.77973 0.690712C10.0485 -0.0881638 12.5155 -0.0667414 14.7704 0.751415C16.0088 1.21507 17.1434 1.91869 18.1091 2.82188C17.781 3.17298 17.4348 3.5011 17.1001 3.84235C16.4636 4.47782 15.8275 5.1111 15.1921 5.7422C14.5586 5.13628 13.7923 4.68682 12.9543 4.4297C11.8819 4.1059 10.7411 4.08373 9.65696 4.36562C8.57284 4.6475 7.5873 5.22255 6.80848 6.02766C6.12866 6.71925 5.61382 7.55544 5.30238 8.47384L1.90137 5.84063C3.11872 3.42655 5.2265 1.57997 7.77973 0.690712Z" fill="#E33629"/>
<path d="M0.998843 8.44922C1.18151 7.54322 1.485 6.66585 1.90119 5.84062L5.3022 8.48039C4.85741 9.79062 4.85741 11.211 5.3022 12.5212C4.16908 13.3962 3.03541 14.2756 1.90119 15.1594C0.859637 13.0861 0.541982 10.7239 0.998843 8.44922Z" fill="#F8BD00"/>
<path d="M11.1726 8.55586H20.9376C21.2715 10.3883 21.1811 12.2729 20.6735 14.0651C20.2063 15.7131 19.2988 17.2025 18.0485 18.3734C16.9509 17.517 15.8484 16.6671 14.7508 15.8107C15.295 15.4437 15.7594 14.9705 16.1163 14.4197C16.4732 13.8688 16.7152 13.2516 16.8278 12.6049H11.1726C11.171 11.2563 11.1726 9.9061 11.1726 8.55586Z" fill="#587DBD"/>
<path d="M1.89966 15.1594C3.03388 14.2844 4.16755 13.405 5.30067 12.5213C5.73906 13.8078 6.57282 14.923 7.68286 15.7073C8.37512 16.1969 9.16188 16.5366 9.99286 16.7048C10.8116 16.8571 11.6514 16.8571 12.4702 16.7048C13.2866 16.5669 14.0651 16.2595 14.7556 15.8025C15.8532 16.6589 16.9557 17.5088 18.0533 18.3652C16.8521 19.4574 15.3879 20.2189 13.804 20.5751C12.0558 20.9861 10.2339 20.9664 8.49497 20.5177C7.11964 20.1504 5.83498 19.5031 4.72153 18.6162C3.54312 17.6804 2.58057 16.5013 1.89966 15.1594Z" fill="#319F43"/>
</g>
<defs>
<clipPath id="clip0_1001_1768">
<rect width="21" height="21" fill="white" transform="translate(0.464111)"/>
</clipPath>
</defs>
</svg>
