<svg width="16" height="18" viewBox="0 0 16 18" fill="none" xmlns="http://www.w3.org/2000/svg">
<path d="M15.6145 7.61881L8.80596 1.19329L8.7983 1.18648C8.57955 0.986128 8.29367 0.875 7.99703 0.875C7.70039 0.875 7.41451 0.986128 7.19575 1.18648L7.18809 1.19329L0.379586 7.61881C0.259161 7.73093 0.163263 7.86678 0.097935 8.0178C0.0326073 8.16881 -0.000733835 8.33172 1.22502e-05 8.49626V16.3643C1.22502e-05 16.6803 0.125544 16.9834 0.348991 17.2069C0.572439 17.4303 0.875498 17.5558 1.1915 17.5558H5.2766C5.59261 17.5558 5.89567 17.4303 6.11911 17.2069C6.34256 16.9834 6.46809 16.6803 6.46809 16.3643V12.2792C6.46809 12.2341 6.48603 12.1908 6.51795 12.1589C6.54987 12.127 6.59316 12.109 6.63831 12.109H9.36171C9.40685 12.109 9.45014 12.127 9.48207 12.1589C9.51399 12.1908 9.53192 12.2341 9.53192 12.2792V16.3643C9.53192 16.6803 9.65745 16.9834 9.8809 17.2069C10.1043 17.4303 10.4074 17.5558 10.7234 17.5558H14.8085C15.1245 17.5558 15.4276 17.4303 15.651 17.2069C15.8745 16.9834 16 16.6803 16 16.3643V8.49626C16 8.33128 15.9657 8.16811 15.8993 8.01706C15.833 7.86602 15.736 7.73041 15.6145 7.61881ZM14.9787 16.3643C14.9787 16.4095 14.9608 16.4528 14.9289 16.4847C14.8969 16.5166 14.8537 16.5346 14.8085 16.5346H10.7234C10.6783 16.5346 10.635 16.5166 10.6031 16.4847C10.5711 16.4528 10.5532 16.4095 10.5532 16.3643V12.2792C10.5532 11.9632 10.4277 11.6602 10.2042 11.4367C9.98077 11.2133 9.67771 11.0877 9.36171 11.0877H6.63831C6.3223 11.0877 6.01924 11.2133 5.7958 11.4367C5.57235 11.6602 5.44682 11.9632 5.44682 12.2792V16.3643C5.44682 16.4095 5.42888 16.4528 5.39696 16.4847C5.36504 16.5166 5.32175 16.5346 5.2766 16.5346H1.1915C1.14636 16.5346 1.10306 16.5166 1.07114 16.4847C1.03922 16.4528 1.02129 16.4095 1.02129 16.3643V8.49626C1.02124 8.47257 1.02613 8.44913 1.03566 8.42744C1.04518 8.40575 1.05913 8.38629 1.07661 8.3703L1.08427 8.36349L7.88767 1.93967C7.91867 1.91261 7.95843 1.8977 7.99958 1.8977C8.04073 1.8977 8.08049 1.91261 8.1115 1.93967L14.9157 8.36435L14.9226 8.37115C14.9402 8.38707 14.9543 8.4065 14.964 8.42819C14.9736 8.44988 14.9787 8.47336 14.9787 8.49711V16.3643Z" fill="#363A45"/>
</svg>
