<svg width="16" height="18" viewBox="0 0 16 18" fill="none" xmlns="http://www.w3.org/2000/svg">
<path d="M1.53846 4.05128H3.07693V6.35897H10.7692V4.05128H12.3077V7.89743H13.8462V4.05128C13.8462 3.20513 13.1539 2.51282 12.3077 2.51282H9.09232C8.76925 1.62052 7.92309 0.974365 6.92309 0.974365C5.92309 0.974365 5.07693 1.62052 4.75385 2.51282H1.53846C0.692309 2.51282 0 3.20513 0 4.05128V14.8205C0 15.6667 0.692309 16.359 1.53846 16.359H6.15386V14.8205H1.53846V4.05128ZM6.92309 2.51282C7.34617 2.51282 7.69232 2.85898 7.69232 3.28205C7.69232 3.70513 7.34617 4.05128 6.92309 4.05128C6.50001 4.05128 6.15386 3.70513 6.15386 3.28205C6.15386 2.85898 6.50001 2.51282 6.92309 2.51282Z" fill="#363A45"/>
<path d="M13.8461 9.05127L9.62304 13.282L7.30766 10.9743L6.15381 12.1282L9.62304 15.5897L15 10.2051L13.8461 9.05127Z" fill="#363A45"/>
</svg>
