<svg width="16" height="18" viewBox="0 0 16 18" fill="none" xmlns="http://www.w3.org/2000/svg">
<path d="M10.7778 5.11111H6.11111M10.7778 8.22222H6.11111M10.7778 11.3333H7.66666M3 2H13.8889V16L13.0862 15.3124C12.8043 15.0708 12.4452 14.938 12.0739 14.938C11.7026 14.938 11.3436 15.0708 11.0617 15.3124L10.259 16L9.45711 15.3124C9.17513 15.0706 8.81592 14.9377 8.44444 14.9377C8.07297 14.9377 7.71375 15.0706 7.43178 15.3124L6.62989 16L5.82722 15.3124C5.5453 15.0708 5.18624 14.938 4.81494 14.938C4.44364 14.938 4.08459 15.0708 3.80267 15.3124L3 16V2Z" stroke="#363A45" stroke-width="1.55556" stroke-linecap="round" stroke-linejoin="round"/>
</svg>
