<svg width="82" height="29" viewBox="0 0 82 29" fill="none" xmlns="http://www.w3.org/2000/svg">
<mask id="path-1-inside-1_908_1784" fill="white">
<path d="M0 8C0 3.58172 3.58172 0 8 0H74C78.4183 0 82 3.58172 82 8V21C82 25.4183 78.4183 29 74 29H8C3.58172 29 0 25.4183 0 21V8Z"/>
</mask>
<path d="M0 8C0 3.58172 3.58172 0 8 0H74C78.4183 0 82 3.58172 82 8V21C82 25.4183 78.4183 29 74 29H8C3.58172 29 0 25.4183 0 21V8Z" fill="#FEFEFE"/>
<path d="M8 3H74V-3H8V3ZM79 8V21H85V8H79ZM74 26H8V32H74V26ZM3 21V8H-3V21H3ZM8 26C5.23858 26 3 23.7614 3 21H-3C-3 27.0751 1.92487 32 8 32V26ZM79 21C79 23.7614 76.7614 26 74 26V32C80.0751 32 85 27.0751 85 21H79ZM74 3C76.7614 3 79 5.23858 79 8H85C85 1.92487 80.0751 -3 74 -3V3ZM8 -3C1.92487 -3 -3 1.92487 -3 8H3C3 5.23858 5.23858 3 8 3V-3Z" fill="#566771" mask="url(#path-1-inside-1_908_1784)"/>
<path d="M13.3847 12.3636V14.1534H8.56721V12.3636H13.3847ZM9.57644 10.5341H12.0075V17.5987C12.0075 17.7479 12.0307 17.8688 12.0771 17.9616C12.1269 18.0511 12.1981 18.1158 12.2909 18.1555C12.3837 18.192 12.4948 18.2102 12.624 18.2102C12.7168 18.2102 12.8146 18.2019 12.9173 18.1854C13.0234 18.1655 13.103 18.1489 13.156 18.1357L13.5239 19.8906C13.4079 19.9238 13.2438 19.9652 13.0317 20.0149C12.8229 20.0646 12.5727 20.0961 12.281 20.1094C11.7109 20.1359 11.222 20.0696 10.8144 19.9105C10.41 19.7481 10.1001 19.4962 9.88468 19.1548C9.67256 18.8134 9.56981 18.3842 9.57644 17.8672V10.5341ZM16.7778 20.1293C16.2906 20.1293 15.858 20.0481 15.4802 19.8857C15.1057 19.7199 14.809 19.4714 14.5903 19.1399C14.3749 18.8052 14.2671 18.3859 14.2671 17.8821C14.2671 17.4579 14.3417 17.0999 14.4909 16.8082C14.64 16.5166 14.8455 16.2796 15.1073 16.0973C15.3692 15.915 15.6708 15.7775 16.0122 15.6847C16.3535 15.5885 16.7181 15.5239 17.1059 15.4908C17.5401 15.451 17.8898 15.4096 18.1549 15.3665C18.4201 15.3201 18.6123 15.2554 18.7316 15.1726C18.8543 15.0864 18.9156 14.9654 18.9156 14.8097V14.7848C18.9156 14.5296 18.8277 14.3324 18.6521 14.1932C18.4764 14.054 18.2394 13.9844 17.9411 13.9844C17.6196 13.9844 17.3611 14.054 17.1656 14.1932C16.97 14.3324 16.8457 14.5246 16.7927 14.7699L14.5505 14.6903C14.6168 14.2263 14.7875 13.812 15.0626 13.4474C15.341 13.0795 15.7222 12.7912 16.2061 12.5824C16.6933 12.3703 17.2783 12.2642 17.961 12.2642C18.4482 12.2642 18.8973 12.3222 19.3083 12.4382C19.7193 12.5509 20.0773 12.7166 20.3822 12.9354C20.6871 13.1508 20.9224 13.416 21.0882 13.7308C21.2572 14.0457 21.3417 14.4053 21.3417 14.8097V20H19.0548V18.9361H18.9951C18.8592 19.1946 18.6852 19.4134 18.4731 19.5923C18.2643 19.7713 18.0174 19.9055 17.7323 19.995C17.4506 20.0845 17.1324 20.1293 16.7778 20.1293ZM17.5285 18.5384C17.7903 18.5384 18.0257 18.4853 18.2345 18.3793C18.4466 18.2732 18.6156 18.1274 18.7416 17.9418C18.8675 17.7528 18.9305 17.5341 18.9305 17.2855V16.5597C18.8609 16.5961 18.7764 16.6293 18.6769 16.6591C18.5808 16.6889 18.4748 16.7171 18.3588 16.7436C18.2428 16.7701 18.1234 16.7933 18.0008 16.8132C17.8782 16.8331 17.7605 16.8513 17.6478 16.8679C17.4191 16.9044 17.2236 16.9607 17.0612 17.0369C16.9021 17.1132 16.7794 17.2126 16.6933 17.3352C16.6104 17.4545 16.569 17.5971 16.569 17.7628C16.569 18.0147 16.6585 18.2069 16.8374 18.3395C17.0197 18.4721 17.2501 18.5384 17.5285 18.5384ZM22.8282 22.8636V12.3636H25.2345V13.6712H25.309C25.4085 13.4392 25.5493 13.2154 25.7316 13C25.9172 12.7846 26.1526 12.6089 26.4376 12.473C26.7259 12.3338 27.0706 12.2642 27.4717 12.2642C28.002 12.2642 28.4975 12.4034 28.9582 12.6818C29.4222 12.9602 29.7967 13.3894 30.0818 13.9695C30.3668 14.5495 30.5093 15.2886 30.5093 16.1868C30.5093 17.0518 30.3718 17.776 30.0967 18.3594C29.8249 18.9427 29.457 19.3802 28.993 19.6719C28.5323 19.9635 28.0202 20.1094 27.4568 20.1094C27.0723 20.1094 26.7392 20.0464 26.4575 19.9205C26.1758 19.7945 25.9388 19.6288 25.7465 19.4233C25.5576 19.2178 25.4118 18.9974 25.309 18.7621H25.2593V22.8636H22.8282ZM25.2096 16.1818C25.2096 16.5928 25.2643 16.9508 25.3737 17.2557C25.4864 17.5606 25.6471 17.7976 25.8559 17.9666C26.068 18.1323 26.3216 18.2152 26.6166 18.2152C26.9149 18.2152 27.1684 18.1323 27.3772 17.9666C27.586 17.7976 27.7435 17.5606 27.8495 17.2557C27.9589 16.9508 28.0136 16.5928 28.0136 16.1818C28.0136 15.7708 27.9589 15.4145 27.8495 15.1129C27.7435 14.8113 27.586 14.5777 27.3772 14.4119C27.1717 14.2462 26.9182 14.1634 26.6166 14.1634C26.3183 14.1634 26.0647 14.2446 25.8559 14.407C25.6471 14.5694 25.4864 14.8014 25.3737 15.103C25.2643 15.4046 25.2096 15.7642 25.2096 16.1818ZM35.3529 20.1442C34.5541 20.1442 33.8647 19.9867 33.2847 19.6719C32.708 19.3537 32.2639 18.9013 31.9523 18.3146C31.6441 17.7247 31.49 17.0237 31.49 16.2116C31.49 15.4228 31.6457 14.7334 31.9573 14.1435C32.2689 13.5502 32.708 13.0895 33.2748 12.7614C33.8415 12.4299 34.5094 12.2642 35.2783 12.2642C35.8219 12.2642 36.319 12.3487 36.7698 12.5178C37.2206 12.6868 37.61 12.937 37.9381 13.2685C38.2662 13.5999 38.5215 14.0092 38.7037 14.4964C38.886 14.9804 38.9772 15.5355 38.9772 16.1619V16.7685H32.3401V15.3565H36.7151C36.7118 15.098 36.6505 14.8677 36.5312 14.6655C36.4118 14.4633 36.2478 14.3059 36.039 14.1932C35.8335 14.0772 35.5965 14.0192 35.328 14.0192C35.0563 14.0192 34.8126 14.0805 34.5972 14.2031C34.3818 14.3224 34.2111 14.4865 34.0851 14.6953C33.9592 14.9008 33.8929 15.1345 33.8863 15.3963V16.8331C33.8863 17.1446 33.9476 17.4181 34.0702 17.6534C34.1929 17.8854 34.3669 18.0661 34.5922 18.1953C34.8176 18.3246 35.0861 18.3892 35.3976 18.3892C35.6131 18.3892 35.8086 18.3594 35.9843 18.2997C36.1599 18.2401 36.3108 18.1522 36.4367 18.0362C36.5626 17.9202 36.6571 17.7777 36.7201 17.6087L38.9523 17.6733C38.8595 18.1738 38.6557 18.6096 38.3408 18.9808C38.0293 19.3487 37.6199 19.6354 37.1128 19.8409C36.6057 20.0431 36.0191 20.1442 35.3529 20.1442ZM46.8857 14.6953L44.6535 14.755C44.6303 14.5959 44.5673 14.455 44.4646 14.3324C44.3618 14.2064 44.2276 14.1087 44.0619 14.0391C43.8995 13.9661 43.7106 13.9297 43.4951 13.9297C43.2134 13.9297 42.9731 13.986 42.7742 14.0987C42.5787 14.2114 42.4826 14.3639 42.4859 14.5561C42.4826 14.7053 42.5422 14.8345 42.6649 14.9439C42.7908 15.0533 43.0145 15.1411 43.336 15.2074L44.8076 15.4858C45.5699 15.6316 46.1367 15.8736 46.5079 16.2116C46.8824 16.5497 47.0713 16.9972 47.0747 17.554C47.0713 18.0777 46.9156 18.5334 46.6073 18.9212C46.3024 19.3089 45.8848 19.6106 45.3545 19.826C44.8242 20.0381 44.2177 20.1442 43.5349 20.1442C42.4445 20.1442 41.5844 19.9205 40.9546 19.473C40.3282 19.0223 39.9703 18.419 39.8808 17.6634L42.282 17.6037C42.3351 17.8821 42.4726 18.0942 42.6947 18.2401C42.9168 18.3859 43.2001 18.4588 43.5448 18.4588C43.8564 18.4588 44.1099 18.4008 44.3055 18.2848C44.501 18.1688 44.6005 18.0147 44.6038 17.8224C44.6005 17.6501 44.5242 17.5125 44.3751 17.4098C44.2259 17.3037 43.9923 17.2209 43.6741 17.1612L42.3417 16.9077C41.5761 16.7685 41.006 16.5116 40.6315 16.1371C40.257 15.7592 40.0713 15.2786 40.0747 14.6953C40.0713 14.1849 40.2072 13.7491 40.4823 13.3878C40.7574 13.0232 41.1485 12.7448 41.6556 12.5526C42.1627 12.3603 42.761 12.2642 43.4504 12.2642C44.4845 12.2642 45.2998 12.4813 45.8964 12.9155C46.493 13.3464 46.8228 13.9396 46.8857 14.6953ZM52.5819 12.3636V14.1534H47.7645V12.3636H52.5819ZM48.7737 10.5341H51.2048V17.5987C51.2048 17.7479 51.228 17.8688 51.2744 17.9616C51.3241 18.0511 51.3954 18.1158 51.4882 18.1555C51.581 18.192 51.692 18.2102 51.8213 18.2102C51.9141 18.2102 52.0119 18.2019 52.1146 18.1854C52.2207 18.1655 52.3002 18.1489 52.3532 18.1357L52.7211 19.8906C52.6051 19.9238 52.4411 19.9652 52.229 20.0149C52.0202 20.0646 51.7699 20.0961 51.4782 20.1094C50.9082 20.1359 50.4193 20.0696 50.0116 19.9105C49.6073 19.7481 49.2974 19.4962 49.0819 19.1548C48.8698 18.8134 48.7671 18.3842 48.7737 17.8672V10.5341ZM53.8224 20V12.3636H56.2535V20H53.8224ZM55.0404 11.4737C54.699 11.4737 54.4057 11.361 54.1604 11.1357C53.9152 10.907 53.7925 10.6319 53.7925 10.3104C53.7925 9.99219 53.9152 9.72041 54.1604 9.49503C54.4057 9.26633 54.699 9.15199 55.0404 9.15199C55.3851 9.15199 55.6784 9.26633 55.9204 9.49503C56.1656 9.72041 56.2883 9.99219 56.2883 10.3104C56.2883 10.6319 56.1656 10.907 55.9204 11.1357C55.6784 11.361 55.3851 11.4737 55.0404 11.4737ZM61.3655 20.1442C60.5601 20.1442 59.8691 19.9785 59.2923 19.647C58.719 19.3156 58.2781 18.8549 57.9699 18.2649C57.6617 17.6716 57.5075 16.9856 57.5075 16.2067C57.5075 15.4245 57.6617 14.7384 57.9699 14.1484C58.2815 13.5552 58.7239 13.0928 59.2973 12.7614C59.874 12.4299 60.5618 12.2642 61.3605 12.2642C62.0665 12.2642 62.6813 12.3918 63.205 12.647C63.732 12.9022 64.143 13.2635 64.4379 13.7308C64.7362 14.1948 64.8937 14.7401 64.9102 15.3665H62.6382C62.5918 14.9754 62.4593 14.6688 62.2405 14.4467C62.0251 14.2247 61.7433 14.1136 61.3953 14.1136C61.1136 14.1136 60.8667 14.1932 60.6546 14.3523C60.4424 14.508 60.2767 14.7401 60.1574 15.0483C60.0414 15.3532 59.9834 15.7311 59.9834 16.1818C59.9834 16.6326 60.0414 17.0137 60.1574 17.3253C60.2767 17.6335 60.4424 17.8672 60.6546 18.0263C60.8667 18.1821 61.1136 18.2599 61.3953 18.2599C61.6207 18.2599 61.8196 18.2119 61.9919 18.1158C62.1676 18.0196 62.3118 17.8788 62.4244 17.6932C62.5371 17.5043 62.6084 17.2756 62.6382 17.0071H64.9102C64.887 17.6368 64.7296 18.187 64.4379 18.6577C64.1496 19.1283 63.7436 19.4946 63.2199 19.7564C62.6995 20.0149 62.0814 20.1442 61.3655 20.1442ZM68.3469 17.9964L68.3568 15.098H68.6949L70.8426 12.3636H73.5969L70.4051 16.2812H69.7638L68.3469 17.9964ZM66.1544 20V9.81818H68.5855V20H66.1544ZM70.8973 20L68.8987 16.8281L70.4996 15.103L73.7062 20H70.8973Z" fill="#566771"/>
</svg>
