<svg width="18" height="18" viewBox="0 0 18 18" fill="none" xmlns="http://www.w3.org/2000/svg">
<path d="M8.99232 18C7.52388 17.9987 6.07805 17.6382 4.78096 16.9498C3.48387 16.2614 2.37492 15.2661 1.55084 14.0507C0.726766 12.8353 0.212597 11.4368 0.0531892 9.97701C-0.106218 8.51725 0.0939777 7.04066 0.636314 5.67604C1.17865 4.31142 2.04665 3.10024 3.1646 2.14813C4.28255 1.19603 5.61648 0.531938 7.05004 0.213782C8.48359 -0.104374 9.97322 -0.0669259 11.389 0.322859C12.8047 0.712644 14.1036 1.44292 15.1723 2.45C15.3128 2.59062 15.3917 2.78125 15.3917 2.98C15.3917 3.17875 15.3128 3.36937 15.1723 3.51C15.1034 3.58075 15.021 3.63699 14.9299 3.67539C14.8389 3.71378 14.7411 3.73357 14.6423 3.73357C14.5435 3.73357 14.4457 3.71378 14.3547 3.67539C14.2637 3.63699 14.1813 3.58075 14.1123 3.51C12.8514 2.33065 11.2226 1.62177 9.50027 1.5027C7.7779 1.38362 6.06709 1.86163 4.65588 2.85624C3.24468 3.85085 2.21926 5.30132 1.75226 6.96345C1.28527 8.62558 1.40523 10.3979 2.09193 11.9819C2.77864 13.5659 3.99016 14.865 5.52252 15.6604C7.05488 16.4558 8.8145 16.6989 10.5051 16.3488C12.1957 15.9987 13.7141 15.0768 14.8046 13.7383C15.8951 12.3998 16.4911 10.7265 16.4923 9C16.4923 8.80108 16.5713 8.61032 16.712 8.46967C16.8526 8.32902 17.0434 8.25 17.2423 8.25C17.4412 8.25 17.632 8.32902 17.7726 8.46967C17.9133 8.61032 17.9923 8.80108 17.9923 9C17.9923 11.3869 17.0441 13.6761 15.3563 15.364C13.6684 17.0518 11.3793 18 8.99232 18Z" fill="#F8F9F9"/>
</svg>
