<svg width="17" height="18" viewBox="0 0 17 18" fill="none" xmlns="http://www.w3.org/2000/svg">
<path d="M16.75 12.2515C16.7497 13.2772 16.3991 14.272 15.7563 15.0712C15.1135 15.8705 14.217 16.4262 13.2153 16.6465L12.7367 15.211C13.1749 15.1388 13.5916 14.9704 13.9568 14.7177C14.3221 14.4651 14.6267 14.1346 14.8488 13.75H13C12.6022 13.75 12.2206 13.592 11.9393 13.3107C11.658 13.0294 11.5 12.6478 11.5 12.25V9.25C11.5 8.85218 11.658 8.47064 11.9393 8.18934C12.2206 7.90804 12.6022 7.75 13 7.75H15.2035C15.0205 6.30017 14.3147 4.96695 13.2186 4.00051C12.1224 3.03406 10.7113 2.50081 9.25 2.50081C7.78866 2.50081 6.37755 3.03406 5.28143 4.00051C4.18531 4.96695 3.47952 6.30017 3.2965 7.75H5.5C5.89782 7.75 6.27936 7.90804 6.56066 8.18934C6.84196 8.47064 7 8.85218 7 9.25V12.25C7 12.6478 6.84196 13.0294 6.56066 13.3107C6.27936 13.592 5.89782 13.75 5.5 13.75H3.25C2.85218 13.75 2.47064 13.592 2.18934 13.3107C1.90804 13.0294 1.75 12.6478 1.75 12.25V8.5C1.75 4.35775 5.10775 1 9.25 1C13.3923 1 16.75 4.35775 16.75 8.5V12.2515Z" fill="#363A45"/>
</svg>
