<svg width="24" height="25" viewBox="0 0 24 25" fill="none" xmlns="http://www.w3.org/2000/svg">
<path d="M12.7959 7.375L20.2959 14.875C20.5072 15.0863 20.626 15.373 20.626 15.6719C20.626 15.9708 20.5072 16.2574 20.2959 16.4688C20.0846 16.6801 19.7979 16.7988 19.499 16.7988C19.2001 16.7988 18.9135 16.6801 18.7021 16.4688L12 9.76469L5.2959 16.4669C5.19125 16.5715 5.06702 16.6545 4.93029 16.7112C4.79356 16.7678 4.64702 16.797 4.49902 16.797C4.35103 16.797 4.20448 16.7678 4.06776 16.7112C3.93103 16.6545 3.80679 16.5715 3.70215 16.4669C3.5975 16.3622 3.51449 16.238 3.45785 16.1013C3.40122 15.9645 3.37207 15.818 3.37207 15.67C3.37207 15.522 3.40122 15.3755 3.45785 15.2387C3.51449 15.102 3.5975 14.9778 3.70215 14.8731L11.2021 7.37313C11.3068 7.26837 11.4311 7.1853 11.5679 7.12868C11.7047 7.07206 11.8513 7.043 11.9994 7.04318C12.1475 7.04335 12.2941 7.07275 12.4307 7.12969C12.5674 7.18664 12.6915 7.27 12.7959 7.375Z" fill="#363A45"/>
</svg>
