<svg width="82" height="30" viewBox="0 0 82 30" fill="none" xmlns="http://www.w3.org/2000/svg">
<mask id="path-1-inside-1_265_217" fill="white">
<path d="M0 8.27442C0 3.85614 3.58172 0.274414 8 0.274414H74C78.4183 0.274414 82 3.85614 82 8.27441V21.2744C82 25.6927 78.4183 29.2744 74 29.2744H8C3.58172 29.2744 0 25.6927 0 21.2744V8.27442Z"/>
</mask>
<path d="M0 8.27442C0 3.85614 3.58172 0.274414 8 0.274414H74C78.4183 0.274414 82 3.85614 82 8.27441V21.2744C82 25.6927 78.4183 29.2744 74 29.2744H8C3.58172 29.2744 0 25.6927 0 21.2744V8.27442Z" fill="#FEFEFE"/>
<path d="M8 3.27441H74V-2.72559H8V3.27441ZM79 8.27441V21.2744H85V8.27441H79ZM74 26.2744H8V32.2744H74V26.2744ZM3 21.2744V8.27442H-3V21.2744H3ZM8 26.2744C5.23858 26.2744 3 24.0358 3 21.2744H-3C-3 27.3495 1.92487 32.2744 8 32.2744V26.2744ZM79 21.2744C79 24.0358 76.7614 26.2744 74 26.2744V32.2744C80.0751 32.2744 85 27.3495 85 21.2744H79ZM74 3.27441C76.7614 3.27441 79 5.51299 79 8.27441H85C85 2.19928 80.0751 -2.72559 74 -2.72559V3.27441ZM8 -2.72559C1.92487 -2.72559 -3 2.19928 -3 8.27442H3C3 5.51299 5.23858 3.27441 8 3.27441V-2.72559Z" fill="#566771" mask="url(#path-1-inside-1_265_217)"/>
<path d="M13.3847 12.6381V14.4278H8.56721V12.6381H13.3847ZM9.57644 10.8085H12.0075V17.8731C12.0075 18.0223 12.0307 18.1433 12.0771 18.2361C12.1269 18.3256 12.1981 18.3902 12.2909 18.43C12.3837 18.4664 12.4948 18.4846 12.624 18.4846C12.7168 18.4846 12.8146 18.4764 12.9173 18.4598C13.0234 18.4399 13.103 18.4233 13.156 18.4101L13.5239 20.165C13.4079 20.1982 13.2438 20.2396 13.0317 20.2893C12.8229 20.339 12.5727 20.3705 12.281 20.3838C11.7109 20.4103 11.222 20.344 10.8144 20.1849C10.41 20.0225 10.1001 19.7706 9.88468 19.4292C9.67256 19.0879 9.56981 18.6586 9.57644 18.1416V10.8085ZM16.7778 20.4037C16.2906 20.4037 15.858 20.3225 15.4802 20.1601C15.1057 19.9943 14.809 19.7458 14.5903 19.4143C14.3749 19.0796 14.2671 18.6603 14.2671 18.1565C14.2671 17.7323 14.3417 17.3743 14.4909 17.0827C14.64 16.791 14.8455 16.554 15.1073 16.3717C15.3692 16.1894 15.6708 16.0519 16.0122 15.9591C16.3535 15.863 16.7181 15.7983 17.1059 15.7652C17.5401 15.7254 17.8898 15.684 18.1549 15.6409C18.4201 15.5945 18.6123 15.5299 18.7316 15.447C18.8543 15.3608 18.9156 15.2398 18.9156 15.0841V15.0592C18.9156 14.804 18.8277 14.6068 18.6521 14.4676C18.4764 14.3284 18.2394 14.2588 17.9411 14.2588C17.6196 14.2588 17.3611 14.3284 17.1656 14.4676C16.97 14.6068 16.8457 14.799 16.7927 15.0443L14.5505 14.9648C14.6168 14.5007 14.7875 14.0864 15.0626 13.7219C15.341 13.354 15.7222 13.0656 16.2061 12.8568C16.6933 12.6447 17.2783 12.5386 17.961 12.5386C18.4482 12.5386 18.8973 12.5966 19.3083 12.7126C19.7193 12.8253 20.0773 12.991 20.3822 13.2098C20.6871 13.4252 20.9224 13.6904 21.0882 14.0052C21.2572 14.3201 21.3417 14.6797 21.3417 15.0841V20.2744H19.0548V19.2105H18.9951C18.8592 19.469 18.6852 19.6878 18.4731 19.8667C18.2643 20.0457 18.0174 20.18 17.7323 20.2694C17.4506 20.3589 17.1324 20.4037 16.7778 20.4037ZM17.5285 18.8128C17.7903 18.8128 18.0257 18.7597 18.2345 18.6537C18.4466 18.5476 18.6156 18.4018 18.7416 18.2162C18.8675 18.0273 18.9305 17.8085 18.9305 17.5599V16.8341C18.8609 16.8705 18.7764 16.9037 18.6769 16.9335C18.5808 16.9633 18.4748 16.9915 18.3588 17.018C18.2428 17.0445 18.1234 17.0677 18.0008 17.0876C17.8782 17.1075 17.7605 17.1257 17.6478 17.1423C17.4191 17.1788 17.2236 17.2351 17.0612 17.3113C16.9021 17.3876 16.7794 17.487 16.6933 17.6096C16.6104 17.729 16.569 17.8715 16.569 18.0372C16.569 18.2891 16.6585 18.4813 16.8374 18.6139C17.0197 18.7465 17.2501 18.8128 17.5285 18.8128ZM22.8282 23.1381V12.6381H25.2345V13.9456H25.309C25.4085 13.7136 25.5493 13.4898 25.7316 13.2744C25.9172 13.059 26.1526 12.8833 26.4376 12.7474C26.7259 12.6082 27.0706 12.5386 27.4717 12.5386C28.002 12.5386 28.4975 12.6778 28.9582 12.9562C29.4222 13.2346 29.7967 13.6639 30.0818 14.2439C30.3668 14.8239 30.5093 15.563 30.5093 16.4612C30.5093 17.3263 30.3718 18.0505 30.0967 18.6338C29.8249 19.2171 29.457 19.6546 28.993 19.9463C28.5323 20.238 28.0202 20.3838 27.4568 20.3838C27.0723 20.3838 26.7392 20.3208 26.4575 20.1949C26.1758 20.0689 25.9388 19.9032 25.7465 19.6977C25.5576 19.4922 25.4118 19.2718 25.309 19.0365H25.2593V23.1381H22.8282ZM25.2096 16.4562C25.2096 16.8672 25.2643 17.2252 25.3737 17.5301C25.4864 17.835 25.6471 18.072 25.8559 18.241C26.068 18.4068 26.3216 18.4896 26.6166 18.4896C26.9149 18.4896 27.1684 18.4068 27.3772 18.241C27.586 18.072 27.7435 17.835 27.8495 17.5301C27.9589 17.2252 28.0136 16.8672 28.0136 16.4562C28.0136 16.0452 27.9589 15.6889 27.8495 15.3873C27.7435 15.0857 27.586 14.8521 27.3772 14.6863C27.1717 14.5206 26.9182 14.4378 26.6166 14.4378C26.3183 14.4378 26.0647 14.519 25.8559 14.6814C25.6471 14.8438 25.4864 15.0758 25.3737 15.3774C25.2643 15.679 25.2096 16.0386 25.2096 16.4562ZM35.3529 20.4186C34.5541 20.4186 33.8647 20.2612 33.2847 19.9463C32.708 19.6281 32.2639 19.1757 31.9523 18.589C31.6441 17.9991 31.49 17.2981 31.49 16.4861C31.49 15.6972 31.6457 15.0078 31.9573 14.4179C32.2689 13.8246 32.708 13.3639 33.2748 13.0358C33.8415 12.7043 34.5094 12.5386 35.2783 12.5386C35.8219 12.5386 36.319 12.6231 36.7698 12.7922C37.2206 12.9612 37.61 13.2114 37.9381 13.5429C38.2662 13.8743 38.5215 14.2836 38.7037 14.7709C38.886 15.2548 38.9772 15.8099 38.9772 16.4363V17.0429H32.3401V15.6309H36.7151C36.7118 15.3724 36.6505 15.1421 36.5312 14.9399C36.4118 14.7377 36.2478 14.5803 36.039 14.4676C35.8335 14.3516 35.5965 14.2936 35.328 14.2936C35.0563 14.2936 34.8126 14.3549 34.5972 14.4775C34.3818 14.5969 34.2111 14.7609 34.0851 14.9697C33.9592 15.1752 33.8929 15.4089 33.8863 15.6707V17.1075C33.8863 17.4191 33.9476 17.6925 34.0702 17.9278C34.1929 18.1598 34.3669 18.3405 34.5922 18.4697C34.8176 18.599 35.0861 18.6636 35.3976 18.6636C35.6131 18.6636 35.8086 18.6338 35.9843 18.5741C36.1599 18.5145 36.3108 18.4266 36.4367 18.3106C36.5626 18.1946 36.6571 18.0521 36.7201 17.8831L38.9523 17.9477C38.8595 18.4482 38.6557 18.884 38.3408 19.2552C38.0293 19.6231 37.6199 19.9098 37.1128 20.1153C36.6057 20.3175 36.0191 20.4186 35.3529 20.4186ZM46.8857 14.9697L44.6535 15.0294C44.6303 14.8703 44.5673 14.7294 44.4646 14.6068C44.3618 14.4809 44.2276 14.3831 44.0619 14.3135C43.8995 14.2406 43.7106 14.2041 43.4951 14.2041C43.2134 14.2041 42.9731 14.2604 42.7742 14.3731C42.5787 14.4858 42.4826 14.6383 42.4859 14.8305C42.4826 14.9797 42.5422 15.1089 42.6649 15.2183C42.7908 15.3277 43.0145 15.4155 43.336 15.4818L44.8076 15.7602C45.5699 15.906 46.1367 16.148 46.5079 16.4861C46.8824 16.8241 47.0713 17.2716 47.0747 17.8284C47.0713 18.3521 46.9156 18.8078 46.6073 19.1956C46.3024 19.5834 45.8848 19.885 45.3545 20.1004C44.8242 20.3125 44.2177 20.4186 43.5349 20.4186C42.4445 20.4186 41.5844 20.1949 40.9546 19.7474C40.3282 19.2967 39.9703 18.6934 39.8808 17.9378L42.282 17.8781C42.3351 18.1565 42.4726 18.3686 42.6947 18.5145C42.9168 18.6603 43.2001 18.7332 43.5448 18.7332C43.8564 18.7332 44.1099 18.6752 44.3055 18.5592C44.501 18.4432 44.6005 18.2891 44.6038 18.0969C44.6005 17.9245 44.5242 17.787 44.3751 17.6842C44.2259 17.5782 43.9923 17.4953 43.6741 17.4356L42.3417 17.1821C41.5761 17.0429 41.006 16.786 40.6315 16.4115C40.257 16.0336 40.0713 15.5531 40.0747 14.9697C40.0713 14.4593 40.2072 14.0235 40.4823 13.6622C40.7574 13.2976 41.1485 13.0192 41.6556 12.827C42.1627 12.6347 42.761 12.5386 43.4504 12.5386C44.4845 12.5386 45.2998 12.7557 45.8964 13.1899C46.493 13.6208 46.8228 14.214 46.8857 14.9697ZM52.5819 12.6381V14.4278H47.7645V12.6381H52.5819ZM48.7737 10.8085H51.2048V17.8731C51.2048 18.0223 51.228 18.1433 51.2744 18.2361C51.3241 18.3256 51.3954 18.3902 51.4882 18.43C51.581 18.4664 51.692 18.4846 51.8213 18.4846C51.9141 18.4846 52.0119 18.4764 52.1146 18.4598C52.2207 18.4399 52.3002 18.4233 52.3532 18.4101L52.7211 20.165C52.6051 20.1982 52.4411 20.2396 52.229 20.2893C52.0202 20.339 51.7699 20.3705 51.4782 20.3838C50.9082 20.4103 50.4193 20.344 50.0116 20.1849C49.6073 20.0225 49.2974 19.7706 49.0819 19.4292C48.8698 19.0879 48.7671 18.6586 48.7737 18.1416V10.8085ZM53.8224 20.2744V12.6381H56.2535V20.2744H53.8224ZM55.0404 11.7481C54.699 11.7481 54.4057 11.6354 54.1604 11.4101C53.9152 11.1814 53.7925 10.9063 53.7925 10.5848C53.7925 10.2666 53.9152 9.99482 54.1604 9.76944C54.4057 9.54075 54.699 9.4264 55.0404 9.4264C55.3851 9.4264 55.6784 9.54075 55.9204 9.76944C56.1656 9.99482 56.2883 10.2666 56.2883 10.5848C56.2883 10.9063 56.1656 11.1814 55.9204 11.4101C55.6784 11.6354 55.3851 11.7481 55.0404 11.7481ZM61.3655 20.4186C60.5601 20.4186 59.8691 20.2529 59.2923 19.9214C58.719 19.59 58.2781 19.1293 57.9699 18.5393C57.6617 17.9461 57.5075 17.26 57.5075 16.4811C57.5075 15.6989 57.6617 15.0128 57.9699 14.4229C58.2815 13.8296 58.7239 13.3672 59.2973 13.0358C59.874 12.7043 60.5618 12.5386 61.3605 12.5386C62.0665 12.5386 62.6813 12.6662 63.205 12.9214C63.732 13.1766 64.143 13.5379 64.4379 14.0052C64.7362 14.4693 64.8937 15.0145 64.9102 15.6409H62.6382C62.5918 15.2498 62.4593 14.9432 62.2405 14.7211C62.0251 14.4991 61.7433 14.3881 61.3953 14.3881C61.1136 14.3881 60.8667 14.4676 60.6546 14.6267C60.4424 14.7825 60.2767 15.0145 60.1574 15.3227C60.0414 15.6276 59.9834 16.0055 59.9834 16.4562C59.9834 16.907 60.0414 17.2881 60.1574 17.5997C60.2767 17.9079 60.4424 18.1416 60.6546 18.3007C60.8667 18.4565 61.1136 18.5344 61.3953 18.5344C61.6207 18.5344 61.8196 18.4863 61.9919 18.3902C62.1676 18.2941 62.3118 18.1532 62.4244 17.9676C62.5371 17.7787 62.6084 17.55 62.6382 17.2815H64.9102C64.887 17.9113 64.7296 18.4614 64.4379 18.9321C64.1496 19.4027 63.7436 19.769 63.2199 20.0308C62.6995 20.2893 62.0814 20.4186 61.3655 20.4186ZM68.3469 18.2709L68.3568 15.3724H68.6949L70.8426 12.6381H73.5969L70.4051 16.5557H69.7638L68.3469 18.2709ZM66.1544 20.2744V10.0926H68.5855V20.2744H66.1544ZM70.8973 20.2744L68.8987 17.1025L70.4996 15.3774L73.7062 20.2744H70.8973Z" fill="#566771"/>
</svg>
